<svg width="40" height="40" viewBox="0 0 35 35" fill="none" xmlns="http://www.w3.org/2000/svg">
<path d="M0 20C0 8.95431 8.95431 0 20 0C31.0457 0 40 8.95431 40 20C40 31.0457 31.0457 40 20 40C8.95431 40 0 31.0457 0 20Z" fill="#F2F4F7"></path>
<path d="M27.5 18.3334H12.5M23.3333 11.6667V15.0001M16.6667 11.6667V15.0001M17.5 23.3334L19.1667 25.0001L22.9167 21.2501M16.5 28.3334H23.5C24.9001 28.3334 25.6002 28.3334 26.135 28.0609C26.6054 27.8212 26.9878 27.4388 27.2275 26.9684C27.5 26.4336 27.5 25.7335 27.5 24.3334V17.3334C27.5 15.9333 27.5 15.2332 27.2275 14.6984C26.9878 14.228 26.6054 13.8456 26.135 13.6059C25.6002 13.3334 24.9001 13.3334 23.5 13.3334H16.5C15.0999 13.3334 14.3998 13.3334 13.865 13.6059C13.3946 13.8456 13.0122 14.228 12.7725 14.6984C12.5 15.2332 12.5 15.9333 12.5 17.3334V24.3334C12.5 25.7335 12.5 26.4336 12.7725 26.9684C13.0122 27.4388 13.3946 27.8212 13.865 28.0609C14.3998 28.3334 15.0999 28.3334 16.5 28.3334Z" stroke="#175CD3" stroke-width="1.66667" stroke-linecap="round" stroke-linejoin="round"></path>
</svg>
