<svg width="40" height="40" viewBox="0 0 35 35" fill="none" xmlns="http://www.w3.org/2000/svg"><path d="M0 20C0 8.954 8.954 0 20 0s20 8.954 20 20-8.954 20-20 20S0 31.046 0 20Z" fill="#F2F4F7"/><path d="M27.5 18.333h-15m10.833-6.666V15m-6.666-3.333V15m.833 8.333L19.167 25l3.75-3.75M16.5 28.333h7c1.4 0 2.1 0 2.635-.272a2.5 2.5 0 0 0 1.092-1.093c.273-.534.273-1.235.273-2.635v-7c0-1.4 0-2.1-.273-2.635a2.5 2.5 0 0 0-1.092-1.092c-.535-.273-1.235-.273-2.635-.273h-7c-1.4 0-2.1 0-2.635.273a2.5 2.5 0 0 0-1.092 1.092c-.273.535-.273 1.235-.273 2.635v7c0 1.4 0 2.1.273 2.635a2.5 2.5 0 0 0 1.092 1.093c.535.272 1.235.272 2.635.272Z" stroke="#175CD3" stroke-width="1.667" stroke-linecap="round" stroke-linejoin="round"/></svg>